# xmcd
#
# Track frame offsets:
#	150
#	14206
#	26574
#	41419
#	56655
#	57140
#	72072
#	85799
#	100242
#	112856
#	113658
#	132526
#	142555
#	152909
#	169280
#	183921
#	184392
#
# Disc length: 2672 seconds
#
# Revision: 0
# Processed by: cddbd v1.5.2PL0 Copyright (c) Steve Scherf et al.
# Submitted via: audiograbber 1.83.01
#
DISCID=e20a6e11
DTITLE=Hillcrest  - Hillcrest Pure Country 81
DYEAR=2016
DGENRE=Country
TTITLE0=Things Only A Fool Would Know Lonnie Spiker
TTITLE1=Is The Grass Any Bluer -Tracy K Houston
TTITLE2=Think I´ll Send Him Some Roses -Darnell Miller
TTITLE3=Know Other Way -Mary Rowan
TTITLE4=Dave Sheriff  ID
TTITLE5=Fifty and Greying -Dave Sheriff 
TTITLE6=´'m Done -Lacy Jay Syler
TTITLE7=Butterfly Tattoo -Ben Klick
TTITLE8=Milkman´s Eyes -Brandon McFhee
TTITLE9=Sherry Kennedy ID
TTITLE10=Ordinary Woman -Dave Sheriff 
TTITLE11=No Can Do -Geordie Jack
TTITLE12=Twenty Five
TTITLE13=Fire Gazer -Tony Smith
TTITLE14=Who's Laughing Now -Annette Hawkins and Kim Copedo
TTITLE15=Brian Dolph ID
TTITLE16=Sweet Summer Rain -Brian Dolph
EXTD=
EXTT0=
EXTT1=
EXTT2=
EXTT3=
EXTT4=
EXTT5=
EXTT6=
EXTT7=
EXTT8=
EXTT9=
EXTT10=
EXTT11=
EXTT12=
EXTT13=
EXTT14=
EXTT15=
EXTT16=
PLAYORDER=
